<?xml version="1.0" encoding="UTF-8" standalone="no"?>
<!DOCTYPE svg PUBLIC "-//W3C//DTD SVG 1.1//EN" "http://www.w3.org/Graphics/SVG/1.1/DTD/svg11.dtd">
<!-- Generated by Microsoft Visio, SVG Export Peripherals_and_Connections.svg Page-1 -->
<svg xmlns="http://www.w3.org/2000/svg" xmlns:xlink="http://www.w3.org/1999/xlink" xmlns:ev="http://www.w3.org/2001/xml-events"
		xmlns:v="http://schemas.microsoft.com/visio/2003/SVGExtensions/" width="6.50648in" height="7.6805in"
		viewBox="0 0 468.467 552.996" xml:space="preserve" color-interpolation-filters="sRGB" class="st23">
	<v:documentProperties v:langID="1033" v:metric="true" v:viewMarkup="false"/>

	<style type="text/css">
	<![CDATA[
		.st1 {fill:#fff2cc;stroke:#000000;stroke-linecap:round;stroke-linejoin:round;stroke-width:0.24}
		.st2 {fill:#000000;font-family:Calibri;font-size:0.833336em}
		.st3 {fill:#fee599;stroke:#000000;stroke-linecap:round;stroke-linejoin:round;stroke-width:0.24}
		.st4 {fill:#ffd965;stroke:#000000;stroke-linecap:round;stroke-linejoin:round;stroke-width:0.24}
		.st5 {marker-end:url(#mrkr13-18);stroke:#000000;stroke-linecap:round;stroke-linejoin:round;stroke-width:0.75}
		.st6 {fill:#000000;fill-opacity:1;stroke:#000000;stroke-opacity:1;stroke-width:0.22935779816514}
		.st7 {fill:#fee599;stroke:none;stroke-linecap:butt;stroke-width:7.2}
		.st8 {fill:#000000;font-family:Calibri;font-size:0.666664em}
		.st9 {fill:none;stroke:none;stroke-linecap:round;stroke-linejoin:round;stroke-width:0.75}
		.st10 {fill:#000000;font-family:Calibri;font-size:1.00001em}
		.st11 {fill:#fff2cc;stroke:none;stroke-linecap:butt;stroke-width:7.2}
		.st12 {fill:#dbeef3;stroke:#000000;stroke-linecap:round;stroke-linejoin:round;stroke-width:0.24}
		.st13 {fill:#b7dde8;stroke:#000000;stroke-linecap:round;stroke-linejoin:round;stroke-width:0.24}
		.st14 {fill:#ffffff;stroke:#000000;stroke-linecap:round;stroke-linejoin:round;stroke-width:0.24}
		.st15 {stroke:#000000;stroke-linecap:round;stroke-linejoin:round;stroke-width:0.75}
		.st16 {fill:#dbeef3;stroke:none;stroke-linecap:butt;stroke-width:7.2}
		.st17 {fill:#000000;font-family:Calibri;font-size:0.75em}
		.st18 {font-size:1em}
		.st19 {marker-end:url(#mrkr13-18);stroke:#000000;stroke-dasharray:5.25,3.75;stroke-linecap:round;stroke-linejoin:round;stroke-width:0.75}
		.st20 {fill:#92cddc;stroke:#000000;stroke-linecap:round;stroke-linejoin:round;stroke-width:0.24}
		.st21 {stroke:#000000;stroke-dasharray:5.25,3.75;stroke-linecap:round;stroke-linejoin:round;stroke-width:0.75}
		.st22 {fill:#dbeef3;stroke:none;stroke-linecap:butt}
		.st23 {fill:none;fill-rule:evenodd;font-size:12px;overflow:visible;stroke-linecap:square;stroke-miterlimit:3}
	]]>
	</style>

	<defs id="Markers">
		<g id="lend13">
			<path d="M 3 1 L 0 0 L 3 -1 L 3 1 " style="stroke:none"/>
		</g>
		<marker id="mrkr13-18" class="st6" v:arrowType="13" v:arrowSize="2" v:setback="13.08" refX="-13.08" orient="auto"
				markerUnits="strokeWidth" overflow="visible">
			<use xlink:href="#lend13" transform="scale(-4.36,-4.36) "/>
		</marker>
	</defs>
	<g v:mID="0" v:index="1" v:groupContext="foregroundPage">
		<title>Page-1</title>
		<v:pageProperties v:drawingScale="0.0393701" v:pageScale="0.0393701" v:drawingUnits="24" v:shadowOffsetX="8.50394"
				v:shadowOffsetY="-8.50394"/>
		<v:layer v:name="Connector" v:index="0"/>
		<g id="shape17-1" v:mID="17" v:groupContext="shape" transform="translate(83.997,-385.632)">
			<title>Rectangle.17</title>
			<desc>GTM CL0</desc>
			<v:userDefs>
				<v:ud v:nameU="visVersion" v:val="VT0(15):26"/>
			</v:userDefs>
			<v:textBlock v:margins="rect(4,4,4,4)" v:tabSpace="42.5197" v:verticalAlign="0"/>
			<v:textRect cx="144.439" cy="469.374" width="288.88" height="167.244"/>
			<rect x="0" y="385.752" width="288.879" height="167.244" class="st1"/>
			<text x="248.28" y="398.75" class="st2" v:langID="1031"><v:paragraph v:horizAlign="2"/><v:tabList/>GTM CL0</text>		</g>
		<g id="shape1-4" v:mID="1" v:groupContext="shape" transform="translate(95.3356,-390.734)">
			<title>Rectangle</title>
			<desc>ATOM[0]</desc>
			<v:userDefs>
				<v:ud v:nameU="visVersion" v:val="VT0(15):26"/>
			</v:userDefs>
			<v:textBlock v:margins="rect(4,4,4,4)" v:tabSpace="42.5197" v:verticalAlign="0"/>
			<v:textRect cx="126.142" cy="489.216" width="252.29" height="127.559"/>
			<rect x="0" y="425.437" width="252.283" height="127.559" class="st3"/>
			<text x="211.25" y="438.44" class="st2" v:langID="1031"><v:paragraph v:horizAlign="2"/><v:tabList/>ATOM[0]</text>		</g>
		<g id="shape2-7" v:mID="2" v:groupContext="shape" transform="translate(106.674,-445.159)">
			<title>Rectangle.2</title>
			<desc>AGC</desc>
			<v:userDefs>
				<v:ud v:nameU="visVersion" v:val="VT0(15):26"/>
			</v:userDefs>
			<v:textBlock v:margins="rect(4,4,4,4)" v:tabSpace="42.5197"/>
			<v:textRect cx="35.4331" cy="528.193" width="70.87" height="49.6063"/>
			<rect x="0" y="503.39" width="70.8661" height="49.6063" class="st4"/>
			<text x="26.72" y="531.19" class="st2" v:langID="1031"><v:paragraph v:horizAlign="1"/><v:tabList/>AGC</text>		</g>
		<g id="shape3-10" v:mID="3" v:groupContext="shape" transform="translate(255.493,-445.159)">
			<title>Rectangle.3</title>
			<desc>ATOM_CH0</desc>
			<v:userDefs>
				<v:ud v:nameU="visVersion" v:val="VT0(15):26"/>
			</v:userDefs>
			<v:textBlock v:margins="rect(4,4,4,4)" v:tabSpace="42.5197"/>
			<v:textRect cx="38.9764" cy="528.193" width="77.96" height="49.6063"/>
			<rect x="0" y="503.39" width="77.9528" height="49.6063" class="st4"/>
			<text x="15.26" y="531.19" class="st2" v:langID="1031"><v:paragraph v:horizAlign="1"/><v:tabList/>ATOM_CH0</text>		</g>
		<g id="shape5-13" v:mID="5" v:groupContext="shape" v:layerMember="0" transform="translate(177.54,-480.592)">
			<title>Dynamic connector</title>
			<desc>OUTEN</desc>
			<v:textBlock v:margins="rect(4,4,4,4)" v:tabSpace="42.5197"/>
			<v:textRect cx="38.9764" cy="545.909" width="40" height="17.6036"/>
			<path d="M0 545.91 L68.14 545.91" class="st5"/>
			<rect v:rectContext="textBkgnd" x="27.2771" y="541.11" width="23.3984" height="9.59985" class="st7"/>
			<text x="27.28" y="548.31" class="st8" v:langID="1031"><v:paragraph v:horizAlign="1"/><v:tabList/>OUTEN</text>		</g>
		<g id="shape6-21" v:mID="6" v:groupContext="shape" v:layerMember="0" transform="translate(177.54,-469.254)">
			<title>Dynamic connector.6</title>
			<desc>ENDIS</desc>
			<v:textBlock v:margins="rect(4,4,4,4)" v:tabSpace="42.5197"/>
			<v:textRect cx="38.9764" cy="545.909" width="40" height="17.6036"/>
			<path d="M0 545.91 L68.14 545.91" class="st5"/>
			<rect v:rectContext="textBkgnd" x="29.1346" y="541.11" width="19.6837" height="9.59985" class="st7"/>
			<text x="29.13" y="548.31" class="st8" v:langID="1031"><v:paragraph v:horizAlign="1"/><v:tabList/>ENDIS</text>		</g>
		<g id="shape7-28" v:mID="7" v:groupContext="shape" v:layerMember="0" transform="translate(177.54,-457.915)">
			<title>Dynamic connector.7</title>
			<desc>FUPD</desc>
			<v:textBlock v:margins="rect(4,4,4,4)" v:tabSpace="42.5197"/>
			<v:textRect cx="38.9764" cy="545.909" width="40" height="17.6036"/>
			<path d="M0 545.91 L68.14 545.91" class="st5"/>
			<rect v:rectContext="textBkgnd" x="30.0448" y="541.11" width="17.8632" height="9.59985" class="st7"/>
			<text x="30.04" y="548.31" class="st8" v:langID="1031"><v:paragraph v:horizAlign="1"/><v:tabList/>FUPD</text>		</g>
		<g id="shape8-35" v:mID="8" v:groupContext="shape" v:layerMember="0" transform="translate(177.54,-460.75)">
			<title>Dynamic connector.8</title>
			<desc>UPEN</desc>
			<v:textBlock v:margins="rect(4,4,4,4)" v:tabSpace="42.5197"/>
			<v:textRect cx="38.9764" cy="560.083" width="40" height="17.6036"/>
			<path d="M0 560.08 L68.14 560.08" class="st5"/>
			<rect v:rectContext="textBkgnd" x="29.8083" y="555.283" width="18.3359" height="9.59985" class="st7"/>
			<text x="29.81" y="562.48" class="st8" v:langID="1031"><v:paragraph v:horizAlign="1"/><v:tabList/>UPEN</text>		</g>
		<g id="shape10-42" v:mID="10" v:groupContext="shape" transform="translate(255.493,-423.9)">
			<title>Rectangle.10</title>
			<desc>ATOM_CH1</desc>
			<v:userDefs>
				<v:ud v:nameU="visVersion" v:val="VT0(15):26"/>
			</v:userDefs>
			<v:textBlock v:margins="rect(4,4,4,4)" v:tabSpace="42.5197"/>
			<v:textRect cx="38.9764" cy="546.249" width="77.96" height="13.4929"/>
			<rect x="0" y="539.503" width="77.9528" height="13.4929" class="st4"/>
			<text x="15.26" y="549.25" class="st2" v:langID="1031"><v:paragraph v:horizAlign="1"/><v:tabList/>ATOM_CH1</text>		</g>
		<g id="shape12-45" v:mID="12" v:groupContext="shape" transform="translate(255.493,-396.233)">
			<title>Rectangle.12</title>
			<desc>ATOM_CH7</desc>
			<v:userDefs>
				<v:ud v:nameU="visVersion" v:val="VT0(15):26"/>
			</v:userDefs>
			<v:textBlock v:margins="rect(4,4,4,4)" v:tabSpace="42.5197"/>
			<v:textRect cx="38.9764" cy="546.249" width="77.96" height="13.4929"/>
			<rect x="0" y="539.503" width="77.9528" height="13.4929" class="st4"/>
			<text x="15.26" y="549.25" class="st2" v:langID="1031"><v:paragraph v:horizAlign="1"/><v:tabList/>ATOM_CH7</text>		</g>
		<g id="shape13-48" v:mID="13" v:groupContext="shape" transform="translate(303.278,-410.407)">
			<title>Sheet.13</title>
			<desc>:</desc>
			<v:textBlock v:margins="rect(4,4,4,4)" v:tabSpace="42.5197"/>
			<v:textRect cx="8.90758" cy="546.249" width="17.82" height="13.4929"/>
			<rect x="0" y="539.503" width="17.8152" height="13.4929" class="st9"/>
			<text x="7.3" y="549.85" class="st10" v:langID="1031"><v:paragraph v:horizAlign="1"/><v:tabList/>:</text>		</g>
		<g id="shape18-51" v:mID="18" v:groupContext="shape" transform="translate(95.854,-524.529)">
			<title>Rectangle.18</title>
			<desc>CMU</desc>
			<v:userDefs>
				<v:ud v:nameU="visVersion" v:val="VT0(15):26"/>
			</v:userDefs>
			<v:textBlock v:margins="rect(4,4,4,4)" v:tabSpace="42.5197"/>
			<v:textRect cx="27.8281" cy="540.821" width="55.66" height="24.3496"/>
			<rect x="0" y="528.646" width="55.6562" height="24.3496" class="st3"/>
			<text x="17.68" y="543.82" class="st2" v:langID="1031"><v:paragraph v:horizAlign="1"/><v:tabList/>CMU</text>		</g>
		<g id="shape19-54" v:mID="19" v:groupContext="shape" v:layerMember="0" transform="translate(151.51,-536.704)">
			<title>Dynamic connector.19</title>
			<desc>CMU_CLKx</desc>
			<v:textBlock v:margins="rect(4,4,4,4)" v:tabSpace="42.5197"/>
			<v:textRect cx="35.5377" cy="552.996" width="46.78" height="17.6036"/>
			<path d="M0 553 L69.97 553 L69.97 561.6" class="st5"/>
			<rect v:rectContext="textBkgnd" x="17.8013" y="548.196" width="35.4727" height="9.59985" class="st11"/>
			<text x="17.8" y="555.4" class="st8" v:langID="1031"><v:paragraph v:horizAlign="1"/><v:tabList/>CMU_CLKx</text>		</g>
		<g id="shape44-61" v:mID="44" v:groupContext="shape" transform="translate(83.4159,-241.065)">
			<title>Rectangle.44</title>
			<desc>ADC G0 - Master</desc>
			<v:userDefs>
				<v:ud v:nameU="visVersion" v:val="VT0(15):26"/>
			</v:userDefs>
			<v:textBlock v:margins="rect(4,4,4,4)" v:tabSpace="42.5197" v:verticalAlign="0"/>
			<v:textRect cx="143.731" cy="492.76" width="287.47" height="120.472"/>
			<rect x="0" y="432.523" width="287.461" height="120.472" class="st12"/>
			<text x="202.4" y="447.32" class="st10" v:langID="1031"><v:paragraph v:horizAlign="2"/><v:tabList/>ADC G0 - Master</text>		</g>
		<g id="shape45-64" v:mID="45" v:groupContext="shape" transform="translate(200.501,-255.805)">
			<title>Rectangle.45</title>
			<desc>Queue 0</desc>
			<v:userDefs>
				<v:ud v:nameU="visVersion" v:val="VT0(15):26"/>
			</v:userDefs>
			<v:textBlock v:margins="rect(4,4,4,4)" v:tabSpace="42.5197"/>
			<v:textRect cx="40.8189" cy="539.106" width="81.64" height="27.7795"/>
			<rect x="0" y="525.216" width="81.6378" height="27.7795" class="st13"/>
			<text x="23.56" y="536.11" class="st2" v:langID="1031"><v:paragraph v:horizAlign="1"/><v:tabList/>Queue 0<v:newlineChar/></text>		</g>
		<g id="shape46-67" v:mID="46" v:groupContext="shape" transform="translate(291.777,-301.443)">
			<title>Rectangle.46</title>
			<desc>Converter</desc>
			<v:userDefs>
				<v:ud v:nameU="visVersion" v:val="VT0(15):26"/>
			</v:userDefs>
			<v:textBlock v:margins="rect(4,4,4,4)" v:tabSpace="42.5197"/>
			<v:textRect cx="27.4961" cy="531.736" width="55" height="42.5197"/>
			<rect x="0" y="510.476" width="54.9921" height="42.5197" class="st13"/>
			<text x="7.17" y="534.74" class="st2" v:langID="1031"><v:paragraph v:horizAlign="1"/><v:tabList/>Converter</text>		</g>
		<g id="shape47-70" v:mID="47" v:groupContext="shape" transform="translate(213.824,-301.443)">
			<title>Rectangle.47</title>
			<desc>MUX</desc>
			<v:userDefs>
				<v:ud v:nameU="visVersion" v:val="VT0(15):26"/>
			</v:userDefs>
			<v:textBlock v:margins="rect(4,4,4,4)" v:tabSpace="42.5197"/>
			<v:textRect cx="27.4961" cy="531.736" width="55" height="42.5197"/>
			<rect x="0" y="510.476" width="54.9921" height="42.5197" class="st13"/>
			<text x="17.42" y="534.74" class="st2" v:langID="1031"><v:paragraph v:horizAlign="1"/><v:tabList/>MUX</text>		</g>
		<g id="group53-73" transform="translate(36.4884,-330.47)" v:mID="53" v:groupContext="group">
			<title>Sheet.53</title>
			<g id="shape51-74" v:mID="51" v:groupContext="shape">
				<title>Square</title>
				<v:userDefs>
					<v:ud v:nameU="visVersion" v:val="VT0(15):26"/>
				</v:userDefs>
				<rect x="0" y="539.503" width="13.4929" height="13.4929" class="st14"/>
			</g>
			<g id="shape52-76" v:mID="52" v:groupContext="shape" transform="translate(2.50347E-05,0)">
				<title>Octagon</title>
				<v:userDefs>
					<v:ud v:nameU="visVersion" v:val="VT0(15):26"/>
				</v:userDefs>
				<path d="M9.54 539.5 L3.95 539.5 L0 543.46 L0 549.04 L3.95 553 L9.54 553 L13.49 549.04 L13.49 543.46 L9.54 539.5 Z"
						class="st14"/>
			</g>
		</g>
		<g id="shape55-78" v:mID="55" v:groupContext="shape" transform="translate(49.9813,-337.216)">
			<title>Sheet.55</title>
			<desc>CH0</desc>
			<v:textBlock v:margins="rect(4,4,4,4)" v:tabSpace="42.5197"/>
			<v:textRect cx="81.9213" cy="552.996" width="163.85" height="0"/>
			<path d="M0 553 L163.84 553" class="st15"/>
			<rect v:rectContext="textBkgnd" x="146.538" y="548.196" width="13.3047" height="9.59985" class="st16"/>
			<text x="146.54" y="555.4" class="st8" v:langID="1031"><v:paragraph v:horizAlign="2"/><v:tabList/>CH0</text>		</g>
		<g id="shape56-83" v:mID="56" v:groupContext="shape" transform="translate(100.136,-330.469) rotate(0.0568563)">
			<title>Sheet.56</title>
			<desc>CH1</desc>
			<v:textBlock v:margins="rect(4,4,4,4)" v:tabSpace="42.5197"/>
			<v:textRect cx="57.1181" cy="552.996" width="114.24" height="0"/>
			<path d="M0 553 L114.24 553" class="st15"/>
			<rect v:rectContext="textBkgnd" x="96.9315" y="548.196" width="13.3047" height="9.59985" class="st16"/>
			<text x="96.93" y="555.4" class="st8" v:langID="1031"><v:paragraph v:horizAlign="2"/><v:tabList/>CH1</text>		</g>
		<g id="shape57-88" v:mID="57" v:groupContext="shape" transform="translate(99.5876,-322.703)">
			<title>Sheet.57</title>
			<desc>CH2</desc>
			<v:textBlock v:margins="rect(4,4,4,4)" v:tabSpace="42.5197"/>
			<v:textRect cx="57.1181" cy="552.996" width="114.24" height="0"/>
			<path d="M0 553 L114.24 553" class="st15"/>
			<rect v:rectContext="textBkgnd" x="96.9315" y="548.196" width="13.3047" height="9.59985" class="st16"/>
			<text x="96.93" y="555.4" class="st8" v:langID="1031"><v:paragraph v:horizAlign="2"/><v:tabList/>CH2</text>		</g>
		<g id="shape58-93" v:mID="58" v:groupContext="shape" transform="translate(99.5876,-309.096)">
			<title>Sheet.58</title>
			<desc>CH7</desc>
			<v:textBlock v:margins="rect(4,4,4,4)" v:tabSpace="42.5197"/>
			<v:textRect cx="57.1181" cy="552.996" width="114.24" height="0"/>
			<path d="M0 553 L114.24 553" class="st15"/>
			<rect v:rectContext="textBkgnd" x="96.9315" y="548.196" width="13.3047" height="9.59985" class="st16"/>
			<text x="96.93" y="555.4" class="st8" v:langID="1031"><v:paragraph v:horizAlign="2"/><v:tabList/>CH7</text>		</g>
		<g id="shape59-98" v:mID="59" v:groupContext="shape" transform="translate(198.8,-313.348)">
			<title>Sheet.59</title>
			<desc>:</desc>
			<v:textBlock v:margins="rect(4,4,4,4)" v:tabSpace="42.5197"/>
			<v:textRect cx="4.67717" cy="549.453" width="9.36" height="7.08661"/>
			<rect x="0" y="545.909" width="9.35433" height="7.08661" class="st9"/>
			<text x="4" y="552.15" class="st17" v:langID="1031"><v:paragraph v:horizAlign="1"/><v:tabList/>:</text>		</g>
		<g id="shape60-101" v:mID="60" v:groupContext="shape" transform="translate(8.1419,-330.47)">
			<title>Sheet.60</title>
			<desc>AIN0</desc>
			<v:textBlock v:margins="rect(4,4,4,4)" v:tabSpace="42.5197"/>
			<v:textRect cx="14.1732" cy="546.249" width="28.35" height="13.4929"/>
			<rect x="0" y="539.503" width="28.3465" height="13.4929" class="st9"/>
			<text x="6.5" y="548.95" class="st17" v:langID="1031"><v:paragraph v:horizAlign="2"/><v:tabList/>AIN0</text>		</g>
		<g id="shape26-104" v:mID="26" v:groupContext="shape" transform="translate(122.548,-245.168)">
			<title>Rectangle.26</title>
			<desc>Request Source Arbiter</desc>
			<v:userDefs>
				<v:ud v:nameU="visVersion" v:val="VT0(15):26"/>
			</v:userDefs>
			<v:textBlock v:margins="rect(4,4,4,4)" v:tabSpace="42.5197"/>
			<v:textRect cx="27.4961" cy="531.736" width="55" height="42.5197"/>
			<rect x="0" y="510.476" width="54.9921" height="42.5197" class="st13"/>
			<text x="10.92" y="522.74" class="st2" v:langID="1031"><v:paragraph v:horizAlign="1"/><v:tabList/>Request <tspan
						x="13.59" dy="1.2em" class="st18">Source </tspan><tspan x="13.18" dy="1.2em" class="st18">Arbiter</tspan></text>		</g>
		<g id="shape61-109" v:mID="61" v:groupContext="shape" transform="translate(268.816,-322.703)">
			<title>Sheet.61</title>
			<path d="M0 553 L22.96 553" class="st15"/>
		</g>
		<g id="shape62-112" v:mID="62" v:groupContext="shape" transform="translate(291.777,-265.927)">
			<title>Rectangle.62</title>
			<desc>Result</desc>
			<v:userDefs>
				<v:ud v:nameU="visVersion" v:val="VT0(15):26"/>
			</v:userDefs>
			<v:textBlock v:margins="rect(4,4,4,4)" v:tabSpace="42.5197"/>
			<v:textRect cx="27.4961" cy="546.051" width="55" height="13.8898"/>
			<rect x="0" y="539.106" width="54.9921" height="13.8898" class="st13"/>
			<text x="14.89" y="549.05" class="st2" v:langID="1031"><v:paragraph v:horizAlign="1"/><v:tabList/>Result</text>		</g>
		<g id="shape63-115" v:mID="63" v:groupContext="shape" transform="translate(872.269,251.553) rotate(90)">
			<title>Sheet.63</title>
			<path d="M0 553 L11.82 553" class="st5"/>
		</g>
		<g id="shape64-120" v:mID="64" v:groupContext="shape" transform="translate(346.769,-322.703)">
			<title>Sheet.64</title>
			<path d="M0 553 L47.73 553" class="st19"/>
		</g>
		<g id="shape65-125" v:mID="65" v:groupContext="shape" transform="translate(375.966,-326.104)">
			<title>Sheet.65</title>
			<desc>Interrupt Trigger</desc>
			<v:textBlock v:margins="rect(4,4,4,4)" v:tabSpace="42.5197"/>
			<v:textRect cx="35.4331" cy="546.249" width="70.87" height="13.4929"/>
			<rect x="0" y="539.503" width="70.8661" height="13.4929" class="st9"/>
			<text x="4" y="548.95" class="st17" v:langID="1031"><v:paragraph/><v:tabList/>Interrupt Trigger</text>		</g>
		<g id="shape66-128" v:mID="66" v:groupContext="shape" v:layerMember="0" transform="translate(390.139,-468.498)">
			<title>Dynamic connector.66</title>
			<path d="M0 553 L0 646.16 L-325.98 646.16 L-325.98 755.07 L-277.4 755.07" class="st19"/>
		</g>
		<g id="group67-133" transform="translate(419.166,-463.216)" v:mID="67" v:groupContext="group">
			<title>Sheet.67</title>
			<g id="shape68-134" v:mID="68" v:groupContext="shape">
				<title>Square</title>
				<v:userDefs>
					<v:ud v:nameU="visVersion" v:val="VT0(15):26"/>
				</v:userDefs>
				<rect x="0" y="539.503" width="13.4929" height="13.4929" class="st14"/>
			</g>
			<g id="shape69-136" v:mID="69" v:groupContext="shape" transform="translate(2.50347E-05,0)">
				<title>Octagon</title>
				<v:userDefs>
					<v:ud v:nameU="visVersion" v:val="VT0(15):26"/>
				</v:userDefs>
				<path d="M9.54 539.5 L3.95 539.5 L0 543.46 L0 549.04 L3.95 553 L9.54 553 L13.49 549.04 L13.49 543.46 L9.54 539.5 Z"
						class="st14"/>
			</g>
		</g>
		<g id="shape70-138" v:mID="70" v:groupContext="shape" transform="translate(333.446,-469.963)">
			<title>Sheet.70</title>
			<path d="M0 553 L85.72 553" class="st15"/>
		</g>
		<g id="shape75-141" v:mID="75" v:groupContext="shape" transform="translate(200.479,-255.84)">
			<title>Rectangle.75</title>
			<v:userDefs>
				<v:ud v:nameU="visVersion" v:val="VT0(15):26"/>
			</v:userDefs>
			<rect x="0" y="541.657" width="18.1417" height="11.3386" class="st20"/>
		</g>
		<g id="shape76-143" v:mID="76" v:groupContext="shape" transform="translate(218.59,-255.84)">
			<title>Rectangle.76</title>
			<v:userDefs>
				<v:ud v:nameU="visVersion" v:val="VT0(15):26"/>
			</v:userDefs>
			<rect x="0" y="541.657" width="18.1417" height="11.3386" class="st20"/>
		</g>
		<g id="shape77-145" v:mID="77" v:groupContext="shape" transform="translate(236.698,-255.84)">
			<title>Rectangle.77</title>
			<v:userDefs>
				<v:ud v:nameU="visVersion" v:val="VT0(15):26"/>
			</v:userDefs>
			<rect x="0" y="541.657" width="18.1417" height="11.3386" class="st20"/>
		</g>
		<g id="shape78-147" v:mID="78" v:groupContext="shape" transform="translate(264.044,-255.84)">
			<title>Rectangle.78</title>
			<v:userDefs>
				<v:ud v:nameU="visVersion" v:val="VT0(15):26"/>
			</v:userDefs>
			<rect x="0" y="541.657" width="18.1417" height="11.3386" class="st20"/>
		</g>
		<g id="shape79-149" v:mID="79" v:groupContext="shape" transform="translate(-290.067,296.944) rotate(-90)">
			<title>Sheet.79</title>
			<desc>:</desc>
			<v:textBlock v:margins="rect(4,4,4,4)" v:tabSpace="42.5197"/>
			<v:textRect cx="4.67717" cy="549.453" width="9.36" height="7.08661"/>
			<rect x="0" y="545.909" width="9.35433" height="7.08661" class="st9"/>
			<text x="4" y="552.15" class="st17" v:langID="1031"><v:paragraph v:horizAlign="1"/><v:tabList/>:</text>		</g>
		<g id="shape80-152" v:mID="80" v:groupContext="shape" v:layerMember="0" transform="translate(191.274,-337.216)">
			<title>Dynamic connector.80</title>
			<path d="M0 553 L0 596.71 L18.28 596.71 L18.28 613.22" class="st19"/>
		</g>
		<g id="shape81-157" v:mID="81" v:groupContext="shape" transform="translate(-311.676,269.411) rotate(-90)">
			<title>Sheet.81</title>
			<path d="M0 553 L8.05 553" class="st5"/>
		</g>
		<g id="shape82-162" v:mID="82" v:groupContext="shape" transform="translate(189.923,-335.799)">
			<title>Circle</title>
			<v:userDefs>
				<v:ud v:nameU="visVersion" v:val="VT0(15):26"/>
			</v:userDefs>
			<path d="M0 551.58 A1.41732 1.41732 0 0 1 2.83 551.58 A1.41732 1.41732 0 1 1 0 551.58 Z" class="st14"/>
		</g>
		<g id="shape83-164" v:mID="83" v:groupContext="shape" transform="translate(82.7357,-120.592)">
			<title>Rectangle.83</title>
			<desc>ADC G2-Slave</desc>
			<v:userDefs>
				<v:ud v:nameU="visVersion" v:val="VT0(15):26"/>
			</v:userDefs>
			<v:textBlock v:margins="rect(4,4,4,4)" v:tabSpace="42.5197" v:verticalAlign="0"/>
			<v:textRect cx="143.731" cy="496.303" width="287.47" height="113.386"/>
			<rect x="0" y="439.61" width="287.461" height="113.386" class="st12"/>
			<text x="217.29" y="454.41" class="st10" v:langID="1031"><v:paragraph v:horizAlign="2"/><v:tabList/>ADC G2-Slave</text>		</g>
		<g id="shape84-167" v:mID="84" v:groupContext="shape" transform="translate(199.821,-126.9)">
			<title>Rectangle.84</title>
			<desc>Queue 0</desc>
			<v:userDefs>
				<v:ud v:nameU="visVersion" v:val="VT0(15):26"/>
			</v:userDefs>
			<v:textBlock v:margins="rect(4,4,4,4)" v:tabSpace="42.5197"/>
			<v:textRect cx="40.8189" cy="539.106" width="81.64" height="27.7795"/>
			<rect x="0" y="525.216" width="81.6378" height="27.7795" class="st13"/>
			<text x="23.56" y="536.11" class="st2" v:langID="1031"><v:paragraph v:horizAlign="1"/><v:tabList/>Queue 0<v:newlineChar/></text>		</g>
		<g id="shape85-170" v:mID="85" v:groupContext="shape" transform="translate(291.096,-172.537)">
			<title>Rectangle.85</title>
			<desc>Converter</desc>
			<v:userDefs>
				<v:ud v:nameU="visVersion" v:val="VT0(15):26"/>
			</v:userDefs>
			<v:textBlock v:margins="rect(4,4,4,4)" v:tabSpace="42.5197"/>
			<v:textRect cx="27.4961" cy="531.736" width="55" height="42.5197"/>
			<rect x="0" y="510.476" width="54.9921" height="42.5197" class="st13"/>
			<text x="7.17" y="534.74" class="st2" v:langID="1031"><v:paragraph v:horizAlign="1"/><v:tabList/>Converter</text>		</g>
		<g id="shape86-173" v:mID="86" v:groupContext="shape" transform="translate(213.144,-172.537)">
			<title>Rectangle.86</title>
			<desc>MUX</desc>
			<v:userDefs>
				<v:ud v:nameU="visVersion" v:val="VT0(15):26"/>
			</v:userDefs>
			<v:textBlock v:margins="rect(4,4,4,4)" v:tabSpace="42.5197"/>
			<v:textRect cx="27.4961" cy="531.736" width="55" height="42.5197"/>
			<rect x="0" y="510.476" width="54.9921" height="42.5197" class="st13"/>
			<text x="17.42" y="534.74" class="st2" v:langID="1031"><v:paragraph v:horizAlign="1"/><v:tabList/>MUX</text>		</g>
		<g id="group87-176" transform="translate(35.8081,-201.564)" v:mID="87" v:groupContext="group">
			<title>Sheet.87</title>
			<g id="shape88-177" v:mID="88" v:groupContext="shape">
				<title>Square</title>
				<v:userDefs>
					<v:ud v:nameU="visVersion" v:val="VT0(15):26"/>
				</v:userDefs>
				<rect x="0" y="539.503" width="13.4929" height="13.4929" class="st14"/>
			</g>
			<g id="shape89-179" v:mID="89" v:groupContext="shape" transform="translate(2.50347E-05,0)">
				<title>Octagon</title>
				<v:userDefs>
					<v:ud v:nameU="visVersion" v:val="VT0(15):26"/>
				</v:userDefs>
				<path d="M9.54 539.5 L3.95 539.5 L0 543.46 L0 549.04 L3.95 553 L9.54 553 L13.49 549.04 L13.49 543.46 L9.54 539.5 Z"
						class="st14"/>
			</g>
		</g>
		<g id="shape90-181" v:mID="90" v:groupContext="shape" transform="translate(49.301,-208.311)">
			<title>Sheet.90</title>
			<desc>CH0</desc>
			<v:textBlock v:margins="rect(4,4,4,4)" v:tabSpace="42.5197"/>
			<v:textRect cx="81.9213" cy="552.996" width="163.85" height="0"/>
			<path d="M0 553 L163.84 553" class="st15"/>
			<rect v:rectContext="textBkgnd" x="146.538" y="548.196" width="13.3047" height="9.59985" class="st16"/>
			<text x="146.54" y="555.4" class="st8" v:langID="1031"><v:paragraph v:horizAlign="2"/><v:tabList/>CH0</text>		</g>
		<g id="shape91-186" v:mID="91" v:groupContext="shape" transform="translate(99.4561,-201.564) rotate(0.0568563)">
			<title>Sheet.91</title>
			<desc>CH1</desc>
			<v:textBlock v:margins="rect(4,4,4,4)" v:tabSpace="42.5197"/>
			<v:textRect cx="57.1181" cy="552.996" width="114.24" height="0"/>
			<path d="M0 553 L114.24 553" class="st15"/>
			<rect v:rectContext="textBkgnd" x="96.9315" y="548.196" width="13.3047" height="9.59985" class="st16"/>
			<text x="96.93" y="555.4" class="st8" v:langID="1031"><v:paragraph v:horizAlign="2"/><v:tabList/>CH1</text>		</g>
		<g id="shape92-191" v:mID="92" v:groupContext="shape" transform="translate(98.9073,-193.797)">
			<title>Sheet.92</title>
			<desc>CH2</desc>
			<v:textBlock v:margins="rect(4,4,4,4)" v:tabSpace="42.5197"/>
			<v:textRect cx="57.1181" cy="552.996" width="114.24" height="0"/>
			<path d="M0 553 L114.24 553" class="st15"/>
			<rect v:rectContext="textBkgnd" x="96.9315" y="548.196" width="13.3047" height="9.59985" class="st16"/>
			<text x="96.93" y="555.4" class="st8" v:langID="1031"><v:paragraph v:horizAlign="2"/><v:tabList/>CH2</text>		</g>
		<g id="shape93-196" v:mID="93" v:groupContext="shape" transform="translate(98.9073,-180.191)">
			<title>Sheet.93</title>
			<desc>CH7</desc>
			<v:textBlock v:margins="rect(4,4,4,4)" v:tabSpace="42.5197"/>
			<v:textRect cx="57.1181" cy="552.996" width="114.24" height="0"/>
			<path d="M0 553 L114.24 553" class="st15"/>
			<rect v:rectContext="textBkgnd" x="96.9315" y="548.196" width="13.3047" height="9.59985" class="st16"/>
			<text x="96.93" y="555.4" class="st8" v:langID="1031"><v:paragraph v:horizAlign="2"/><v:tabList/>CH7</text>		</g>
		<g id="shape94-201" v:mID="94" v:groupContext="shape" transform="translate(198.12,-184.443)">
			<title>Sheet.94</title>
			<desc>:</desc>
			<v:textBlock v:margins="rect(4,4,4,4)" v:tabSpace="42.5197"/>
			<v:textRect cx="4.67717" cy="549.453" width="9.36" height="7.08661"/>
			<rect x="0" y="545.909" width="9.35433" height="7.08661" class="st9"/>
			<text x="4" y="552.15" class="st17" v:langID="1031"><v:paragraph v:horizAlign="1"/><v:tabList/>:</text>		</g>
		<g id="shape95-204" v:mID="95" v:groupContext="shape" transform="translate(0.375,-201.564)">
			<title>Sheet.95</title>
			<desc>AIN16</desc>
			<v:textBlock v:margins="rect(4,4,4,4)" v:tabSpace="42.5197"/>
			<v:textRect cx="17.7165" cy="546.249" width="35.44" height="13.4929"/>
			<rect x="0" y="539.503" width="35.4331" height="13.4929" class="st9"/>
			<text x="9.03" y="548.95" class="st17" v:langID="1031"><v:paragraph v:horizAlign="2"/><v:tabList/>AIN16</text>		</g>
		<g id="shape97-207" v:mID="97" v:groupContext="shape" transform="translate(268.136,-193.797)">
			<title>Sheet.97</title>
			<path d="M0 553 L22.96 553" class="st15"/>
		</g>
		<g id="shape98-210" v:mID="98" v:groupContext="shape" transform="translate(291.096,-137.022)">
			<title>Rectangle.98</title>
			<desc>Result</desc>
			<v:userDefs>
				<v:ud v:nameU="visVersion" v:val="VT0(15):26"/>
			</v:userDefs>
			<v:textBlock v:margins="rect(4,4,4,4)" v:tabSpace="42.5197"/>
			<v:textRect cx="27.4961" cy="546.051" width="55" height="13.8898"/>
			<rect x="0" y="539.106" width="54.9921" height="13.8898" class="st13"/>
			<text x="14.89" y="549.05" class="st2" v:langID="1031"><v:paragraph v:horizAlign="1"/><v:tabList/>Result</text>		</g>
		<g id="shape99-213" v:mID="99" v:groupContext="shape" transform="translate(871.588,380.459) rotate(90)">
			<title>Sheet.99</title>
			<path d="M0 553 L11.82 553" class="st5"/>
		</g>
		<g id="shape100-218" v:mID="100" v:groupContext="shape" transform="translate(346.088,-193.797)">
			<title>Sheet.100</title>
			<path d="M0 553 L47.73 553" class="st19"/>
		</g>
		<g id="shape101-223" v:mID="101" v:groupContext="shape" transform="translate(375.285,-197.199)">
			<title>Sheet.101</title>
			<desc>Interrupt Trigger</desc>
			<v:textBlock v:margins="rect(4,4,4,4)" v:tabSpace="42.5197"/>
			<v:textRect cx="35.4331" cy="546.249" width="70.87" height="13.4929"/>
			<rect x="0" y="539.503" width="70.8661" height="13.4929" class="st9"/>
			<text x="4" y="548.95" class="st17" v:langID="1031"><v:paragraph/><v:tabList/>Interrupt Trigger</text>		</g>
		<g id="shape102-226" v:mID="102" v:groupContext="shape" transform="translate(199.799,-126.934)">
			<title>Rectangle.102</title>
			<v:userDefs>
				<v:ud v:nameU="visVersion" v:val="VT0(15):26"/>
			</v:userDefs>
			<rect x="0" y="541.657" width="18.1417" height="11.3386" class="st20"/>
		</g>
		<g id="shape103-228" v:mID="103" v:groupContext="shape" transform="translate(217.91,-126.934)">
			<title>Rectangle.103</title>
			<v:userDefs>
				<v:ud v:nameU="visVersion" v:val="VT0(15):26"/>
			</v:userDefs>
			<rect x="0" y="541.657" width="18.1417" height="11.3386" class="st20"/>
		</g>
		<g id="shape104-230" v:mID="104" v:groupContext="shape" transform="translate(236.018,-126.934)">
			<title>Rectangle.104</title>
			<v:userDefs>
				<v:ud v:nameU="visVersion" v:val="VT0(15):26"/>
			</v:userDefs>
			<rect x="0" y="541.657" width="18.1417" height="11.3386" class="st20"/>
		</g>
		<g id="shape105-232" v:mID="105" v:groupContext="shape" transform="translate(263.364,-126.934)">
			<title>Rectangle.105</title>
			<v:userDefs>
				<v:ud v:nameU="visVersion" v:val="VT0(15):26"/>
			</v:userDefs>
			<rect x="0" y="541.657" width="18.1417" height="11.3386" class="st20"/>
		</g>
		<g id="shape106-234" v:mID="106" v:groupContext="shape" transform="translate(-290.748,425.849) rotate(-90)">
			<title>Sheet.106</title>
			<desc>:</desc>
			<v:textBlock v:margins="rect(4,4,4,4)" v:tabSpace="42.5197"/>
			<v:textRect cx="4.67717" cy="549.453" width="9.36" height="7.08661"/>
			<rect x="0" y="545.909" width="9.35433" height="7.08661" class="st9"/>
			<text x="4" y="552.15" class="st17" v:langID="1031"><v:paragraph v:horizAlign="1"/><v:tabList/>:</text>		</g>
		<g id="shape107-237" v:mID="107" v:groupContext="shape" v:layerMember="0" transform="translate(190.594,-208.311)">
			<title>Dynamic connector.107</title>
			<path d="M0 553 L0 596.71 L18.28 596.71 L18.28 613.22" class="st19"/>
		</g>
		<g id="shape108-242" v:mID="108" v:groupContext="shape" transform="translate(-312.356,398.317) rotate(-90)">
			<title>Sheet.108</title>
			<path d="M0 553 L8.05 553" class="st5"/>
		</g>
		<g id="shape109-247" v:mID="109" v:groupContext="shape" transform="translate(189.243,-206.893)">
			<title>Circle.109</title>
			<v:userDefs>
				<v:ud v:nameU="visVersion" v:val="VT0(15):26"/>
			</v:userDefs>
			<path d="M0 551.58 A1.41732 1.41732 0 0 1 2.83 551.58 A1.41732 1.41732 0 1 1 0 551.58 Z" class="st14"/>
		</g>
		<g id="shape110-249" v:mID="110" v:groupContext="shape" transform="translate(744.255,263.54) rotate(90.4196)">
			<title>Sheet.110</title>
			<desc>Synchronization</desc>
			<v:textBlock v:margins="rect(4,4,4,4)" v:tabSpace="42.5197"/>
			<v:textRect cx="41.8901" cy="552.996" width="83.79" height="0"/>
			<path d="M0 553 L83.78 553" class="st21"/>
			<rect v:rectContext="textBkgnd" x="15.859" y="548.196" width="52.062" height="9.59985" class="st16"/>
			<text x="15.86" y="555.4" class="st8" v:langID="1031"><v:paragraph v:horizAlign="1"/><v:tabList/>Synchronization</text>		</g>
		<g id="shape137-254" v:mID="137" v:groupContext="shape" transform="translate(82.7357,-0.12)">
			<title>Rectangle.137</title>
			<desc>ADC G3-Slave</desc>
			<v:userDefs>
				<v:ud v:nameU="visVersion" v:val="VT0(15):26"/>
			</v:userDefs>
			<v:textBlock v:margins="rect(4,4,4,4)" v:tabSpace="42.5197" v:verticalAlign="0"/>
			<v:textRect cx="143.731" cy="496.303" width="287.47" height="113.386"/>
			<rect x="0" y="439.61" width="287.461" height="113.386" class="st12"/>
			<text x="217.29" y="454.41" class="st10" v:langID="1031"><v:paragraph v:horizAlign="2"/><v:tabList/>ADC G3-Slave</text>		</g>
		<g id="shape138-257" v:mID="138" v:groupContext="shape" transform="translate(199.821,-6.42709)">
			<title>Rectangle.138</title>
			<desc>Queue 0</desc>
			<v:userDefs>
				<v:ud v:nameU="visVersion" v:val="VT0(15):26"/>
			</v:userDefs>
			<v:textBlock v:margins="rect(4,4,4,4)" v:tabSpace="42.5197"/>
			<v:textRect cx="40.8189" cy="539.106" width="81.64" height="27.7795"/>
			<rect x="0" y="525.216" width="81.6378" height="27.7795" class="st13"/>
			<text x="23.56" y="536.11" class="st2" v:langID="1031"><v:paragraph v:horizAlign="1"/><v:tabList/>Queue 0<v:newlineChar/></text>		</g>
		<g id="shape139-260" v:mID="139" v:groupContext="shape" transform="translate(291.096,-52.0649)">
			<title>Rectangle.139</title>
			<desc>Converter</desc>
			<v:userDefs>
				<v:ud v:nameU="visVersion" v:val="VT0(15):26"/>
			</v:userDefs>
			<v:textBlock v:margins="rect(4,4,4,4)" v:tabSpace="42.5197"/>
			<v:textRect cx="27.4961" cy="531.736" width="55" height="42.5197"/>
			<rect x="0" y="510.476" width="54.9921" height="42.5197" class="st13"/>
			<text x="7.17" y="534.74" class="st2" v:langID="1031"><v:paragraph v:horizAlign="1"/><v:tabList/>Converter</text>		</g>
		<g id="shape140-263" v:mID="140" v:groupContext="shape" transform="translate(213.144,-52.0649)">
			<title>Rectangle.140</title>
			<desc>MUX</desc>
			<v:userDefs>
				<v:ud v:nameU="visVersion" v:val="VT0(15):26"/>
			</v:userDefs>
			<v:textBlock v:margins="rect(4,4,4,4)" v:tabSpace="42.5197"/>
			<v:textRect cx="27.4961" cy="531.736" width="55" height="42.5197"/>
			<rect x="0" y="510.476" width="54.9921" height="42.5197" class="st13"/>
			<text x="17.42" y="534.74" class="st2" v:langID="1031"><v:paragraph v:horizAlign="1"/><v:tabList/>MUX</text>		</g>
		<g id="group141-266" transform="translate(35.8081,-81.0916)" v:mID="141" v:groupContext="group">
			<title>Sheet.141</title>
			<g id="shape142-267" v:mID="142" v:groupContext="shape">
				<title>Square</title>
				<v:userDefs>
					<v:ud v:nameU="visVersion" v:val="VT0(15):26"/>
				</v:userDefs>
				<rect x="0" y="539.503" width="13.4929" height="13.4929" class="st14"/>
			</g>
			<g id="shape143-269" v:mID="143" v:groupContext="shape" transform="translate(2.50347E-05,0)">
				<title>Octagon</title>
				<v:userDefs>
					<v:ud v:nameU="visVersion" v:val="VT0(15):26"/>
				</v:userDefs>
				<path d="M9.54 539.5 L3.95 539.5 L0 543.46 L0 549.04 L3.95 553 L9.54 553 L13.49 549.04 L13.49 543.46 L9.54 539.5 Z"
						class="st14"/>
			</g>
		</g>
		<g id="shape144-271" v:mID="144" v:groupContext="shape" transform="translate(49.301,-87.8381)">
			<title>Sheet.144</title>
			<desc>CH0</desc>
			<v:textBlock v:margins="rect(4,4,4,4)" v:tabSpace="42.5197"/>
			<v:textRect cx="81.9213" cy="552.996" width="163.85" height="0"/>
			<path d="M0 553 L163.84 553" class="st15"/>
			<rect v:rectContext="textBkgnd" x="146.538" y="548.196" width="13.3047" height="9.59985" class="st16"/>
			<text x="146.54" y="555.4" class="st8" v:langID="1031"><v:paragraph v:horizAlign="2"/><v:tabList/>CH0</text>		</g>
		<g id="shape145-276" v:mID="145" v:groupContext="shape" transform="translate(99.4561,-81.0914) rotate(0.0568563)">
			<title>Sheet.145</title>
			<desc>CH1</desc>
			<v:textBlock v:margins="rect(4,4,4,4)" v:tabSpace="42.5197"/>
			<v:textRect cx="57.1181" cy="552.996" width="114.24" height="0"/>
			<path d="M0 553 L114.24 553" class="st15"/>
			<rect v:rectContext="textBkgnd" x="96.9315" y="548.196" width="13.3047" height="9.59985" class="st22"/>
			<text x="96.93" y="555.4" class="st8" v:langID="1031"><v:paragraph v:horizAlign="2"/><v:tabList/>CH1</text>		</g>
		<g id="shape146-281" v:mID="146" v:groupContext="shape" transform="translate(98.9073,-73.3247)">
			<title>Sheet.146</title>
			<desc>CH2</desc>
			<v:textBlock v:margins="rect(4,4,4,4)" v:tabSpace="42.5197"/>
			<v:textRect cx="57.1181" cy="552.996" width="114.24" height="0"/>
			<path d="M0 553 L114.24 553" class="st15"/>
			<rect v:rectContext="textBkgnd" x="96.9315" y="548.196" width="13.3047" height="9.59985" class="st16"/>
			<text x="96.93" y="555.4" class="st8" v:langID="1031"><v:paragraph v:horizAlign="2"/><v:tabList/>CH2</text>		</g>
		<g id="shape147-286" v:mID="147" v:groupContext="shape" transform="translate(98.9073,-59.7184)">
			<title>Sheet.147</title>
			<desc>CH7</desc>
			<v:textBlock v:margins="rect(4,4,4,4)" v:tabSpace="42.5197"/>
			<v:textRect cx="57.1181" cy="552.996" width="114.24" height="0"/>
			<path d="M0 553 L114.24 553" class="st15"/>
			<rect v:rectContext="textBkgnd" x="96.9315" y="548.196" width="13.3047" height="9.59985" class="st22"/>
			<text x="96.93" y="555.4" class="st8" v:langID="1031"><v:paragraph v:horizAlign="2"/><v:tabList/>CH7</text>		</g>
		<g id="shape148-291" v:mID="148" v:groupContext="shape" transform="translate(198.12,-63.9704)">
			<title>Sheet.148</title>
			<desc>:</desc>
			<v:textBlock v:margins="rect(4,4,4,4)" v:tabSpace="42.5197"/>
			<v:textRect cx="4.67717" cy="549.453" width="9.36" height="7.08661"/>
			<rect x="0" y="545.909" width="9.35433" height="7.08661" class="st9"/>
			<text x="4" y="552.15" class="st17" v:langID="1031"><v:paragraph v:horizAlign="1"/><v:tabList/>:</text>		</g>
		<g id="shape149-294" v:mID="149" v:groupContext="shape" transform="translate(0.375,-81.0916)">
			<title>Sheet.149</title>
			<desc>AIN24</desc>
			<v:textBlock v:margins="rect(4,4,4,4)" v:tabSpace="42.5197"/>
			<v:textRect cx="17.7165" cy="546.249" width="35.44" height="13.4929"/>
			<rect x="0" y="539.503" width="35.4331" height="13.4929" class="st9"/>
			<text x="9.03" y="548.95" class="st17" v:langID="1031"><v:paragraph v:horizAlign="2"/><v:tabList/>AIN24</text>		</g>
		<g id="shape150-297" v:mID="150" v:groupContext="shape" transform="translate(268.136,-73.3247)">
			<title>Sheet.150</title>
			<path d="M0 553 L22.96 553" class="st15"/>
		</g>
		<g id="shape151-300" v:mID="151" v:groupContext="shape" transform="translate(291.096,-16.5495)">
			<title>Rectangle.151</title>
			<desc>Result</desc>
			<v:userDefs>
				<v:ud v:nameU="visVersion" v:val="VT0(15):26"/>
			</v:userDefs>
			<v:textBlock v:margins="rect(4,4,4,4)" v:tabSpace="42.5197"/>
			<v:textRect cx="27.4961" cy="546.051" width="55" height="13.8898"/>
			<rect x="0" y="539.106" width="54.9921" height="13.8898" class="st13"/>
			<text x="14.89" y="549.05" class="st2" v:langID="1031"><v:paragraph v:horizAlign="1"/><v:tabList/>Result</text>		</g>
		<g id="shape152-303" v:mID="152" v:groupContext="shape" transform="translate(871.588,500.931) rotate(90)">
			<title>Sheet.152</title>
			<path d="M0 553 L11.82 553" class="st5"/>
		</g>
		<g id="shape153-308" v:mID="153" v:groupContext="shape" transform="translate(346.088,-73.3247)">
			<title>Sheet.153</title>
			<path d="M0 553 L47.73 553" class="st19"/>
		</g>
		<g id="shape154-313" v:mID="154" v:groupContext="shape" transform="translate(375.285,-76.7263)">
			<title>Sheet.154</title>
			<desc>Interrupt Trigger</desc>
			<v:textBlock v:margins="rect(4,4,4,4)" v:tabSpace="42.5197"/>
			<v:textRect cx="35.4331" cy="546.249" width="70.87" height="13.4929"/>
			<rect x="0" y="539.503" width="70.8661" height="13.4929" class="st9"/>
			<text x="4" y="548.95" class="st17" v:langID="1031"><v:paragraph/><v:tabList/>Interrupt Trigger</text>		</g>
		<g id="shape155-316" v:mID="155" v:groupContext="shape" transform="translate(199.799,-6.46183)">
			<title>Rectangle.155</title>
			<v:userDefs>
				<v:ud v:nameU="visVersion" v:val="VT0(15):26"/>
			</v:userDefs>
			<rect x="0" y="541.657" width="18.1417" height="11.3386" class="st20"/>
		</g>
		<g id="shape156-318" v:mID="156" v:groupContext="shape" transform="translate(217.91,-6.46183)">
			<title>Rectangle.156</title>
			<v:userDefs>
				<v:ud v:nameU="visVersion" v:val="VT0(15):26"/>
			</v:userDefs>
			<rect x="0" y="541.657" width="18.1417" height="11.3386" class="st20"/>
		</g>
		<g id="shape157-320" v:mID="157" v:groupContext="shape" transform="translate(236.018,-6.46183)">
			<title>Rectangle.157</title>
			<v:userDefs>
				<v:ud v:nameU="visVersion" v:val="VT0(15):26"/>
			</v:userDefs>
			<rect x="0" y="541.657" width="18.1417" height="11.3386" class="st20"/>
		</g>
		<g id="shape158-322" v:mID="158" v:groupContext="shape" transform="translate(263.364,-6.46183)">
			<title>Rectangle.158</title>
			<v:userDefs>
				<v:ud v:nameU="visVersion" v:val="VT0(15):26"/>
			</v:userDefs>
			<rect x="0" y="541.657" width="18.1417" height="11.3386" class="st20"/>
		</g>
		<g id="shape159-324" v:mID="159" v:groupContext="shape" transform="translate(-290.748,546.322) rotate(-90)">
			<title>Sheet.159</title>
			<desc>:</desc>
			<v:textBlock v:margins="rect(4,4,4,4)" v:tabSpace="42.5197"/>
			<v:textRect cx="4.67717" cy="549.453" width="9.36" height="7.08661"/>
			<rect x="0" y="545.909" width="9.35433" height="7.08661" class="st9"/>
			<text x="4" y="552.15" class="st17" v:langID="1031"><v:paragraph v:horizAlign="1"/><v:tabList/>:</text>		</g>
		<g id="shape160-327" v:mID="160" v:groupContext="shape" v:layerMember="0" transform="translate(190.594,-87.8381)">
			<title>Dynamic connector.160</title>
			<path d="M0 553 L0 596.71 L18.28 596.71 L18.28 613.22" class="st19"/>
		</g>
		<g id="shape161-332" v:mID="161" v:groupContext="shape" transform="translate(-312.356,518.789) rotate(-90)">
			<title>Sheet.161</title>
			<path d="M0 553 L8.05 553" class="st5"/>
		</g>
		<g id="shape162-337" v:mID="162" v:groupContext="shape" transform="translate(189.243,-86.4208)">
			<title>Circle.162</title>
			<v:userDefs>
				<v:ud v:nameU="visVersion" v:val="VT0(15):26"/>
			</v:userDefs>
			<path d="M0 551.58 A1.41732 1.41732 0 0 1 2.83 551.58 A1.41732 1.41732 0 1 1 0 551.58 Z" class="st14"/>
		</g>
		<g id="shape163-339" v:mID="163" v:groupContext="shape" transform="translate(432.658,-463.216)">
			<title>Sheet.163</title>
			<desc>P02.3</desc>
			<v:textBlock v:margins="rect(4,4,4,4)" v:tabSpace="42.5197"/>
			<v:textRect cx="17.7165" cy="546.249" width="35.44" height="13.4929"/>
			<rect x="0" y="539.503" width="35.4331" height="13.4929" class="st9"/>
			<text x="4" y="548.95" class="st17" v:langID="1031"><v:paragraph/><v:tabList/>P02.3</text>		</g>
		<g id="shape164-342" v:mID="164" v:groupContext="shape" transform="translate(743.589,387.906) rotate(89.9492)">
			<title>Sheet.164</title>
			<desc>Synchronization</desc>
			<v:textBlock v:margins="rect(4,4,4,4)" v:tabSpace="42.5197"/>
			<v:textRect cx="37.6725" cy="552.996" width="75.35" height="0"/>
			<path d="M0 553 L75.34 553" class="st21"/>
			<rect v:rectContext="textBkgnd" x="11.6414" y="548.196" width="52.062" height="9.59985" class="st22"/>
			<text x="11.64" y="555.4" class="st8" v:langID="1031"><v:paragraph v:horizAlign="1"/><v:tabList/>Synchronization</text>		</g>
		<g id="shape165-347" v:mID="165" v:groupContext="shape" transform="translate(388.721,-468.498)">
			<title>Circle.165</title>
			<v:userDefs>
				<v:ud v:nameU="visVersion" v:val="VT0(15):26"/>
			</v:userDefs>
			<path d="M0 551.58 A1.41732 1.41732 0 0 1 2.83 551.58 A1.41732 1.41732 0 1 1 0 551.58 Z" class="st14"/>
		</g>
	</g>
</svg>
